# xmcd
#
# Track frame offsets:
#	150
#	17041
#	35800
#	58042
#	74958
#	87600
#	102032
#	113497
#	132429
#
# Disc length: 2003 seconds
#
# Revision: 0
# Processed by: cddbd v1.5.1PL0 Copyright (c) Steve Scherf et al.
# Submitted via: dBpowerAMP V4.0
#
DISCID=8207d109
DTITLE=Vince Gill - I Still Believe In You
DYEAR=1900
DGENRE=Country
TTITLE0=Dont Let Our Love Start Slipping Away
TTITLE1=No Future In The Past
TTITLE2=Nothing Like A Woman
TTITLE3=Trying To Get Over You
TTITLE4=Say Hello
TTITLE5=One More Last Chance
TTITLE6=Pretty Words
TTITLE7=Love Never Broke Anyones Heart
TTITLE8=I Still Believe In You
EXTD=
EXTT0=
EXTT1=
EXTT2=
EXTT3=
EXTT4=
EXTT5=
EXTT6=
EXTT7=
EXTT8=
PLAYORDER=
